mastitorrents.com
 
http://mastitorrents.com/forums/index.php

General
Complete name                    : F:\Inception 2010 BRRip 720p Hindi by imkhan -=[TDT]=-\Inception 2010 BRRip 720p Hindi by imkhan -=[TDT]=-.mkv
Format                           : Matroska
File size                        : 819 MiB
Duration                         : 2h 22mn
Overall bit rate                 : 806 Kbps
Movie name                       : Inception 2010 BRRip 720p Hindi by imkhan -=[TDT]=-
Encoded date                     : UTC 2010-12-19 18:32:44
Writing application              : mkvmerge v4.2.0 ('No Talking') built on Jul 28 2010 18:38:23
Writing library                  : libebml v1.0.0 + libmatroska v1.0.0
Video
ID                               : 1
Format                           : AVC
Format/Info                      : Advanced Video Codec
Format profile                   : High@L4.0
Format settings, CABAC           : Yes
Format settings, ReFrames        : 8 frames
Muxing mode                      : Container profile=Unknown@4.0
Codec ID                         : V_MPEG4/ISO/AVC
Duration                         : 2h 22mn
Bit rate                         : 662 Kbps
Nominal bit rate                 : 650 Kbps
Width                            : 1 280 pixels
Height                           : 522 pixels
Display aspect ratio             : 2.452
Frame rate                       : 25.000 fps
Original frame rate              : 23.976 fps
Resolution                       : 24 bits
Colorimetry                      : 4:2:0
Scan type                        : Progressive
Bits/(Pixel*Frame)               : 0.040
Stream size                      : 672 MiB (82%)
Title                            : imkhan
Writing library                  : x264 core 98 r1649 20cbe10
Encoding settings                : cabac=1 / ref=8 / deblock=1:0:0 / analyse=0x3:0x133 / me=umh / subme=9 / psy=1 / psy_rd=1.00:0.00 / mixed_ref=1 / me_range=16 / chroma_me=1 / trellis=2 / 8x8dct=1 / cqm=0 / deadzone=21,11 / fast_pskip=1 / chroma_qp_offset=-2 / threads=3 / sliced_threads=0 / nr=0 / decimate=1 / interlaced=0 / constrained_intra=0 / bframes=3 / b_pyramid=0 / b_adapt=2 / b_bias=0 / direct=3 / weightb=1 / weightp=2 / keyint=250 / keyint_min=25 / scenecut=40 / intra_refresh=0 / rc_lookahead=60 / rc=2pass / mbtree=1 / bitrate=650 / ratetol=1.0 / qcomp=0.60 / qpmin=10 / qpmax=51 / qpstep=4 / cplxblur=20.0 / qblur=0.5 / ip_ratio=1.40 / aq=1:1.00
Language                         : Hindi
Audio
ID                               : 2
Format                           : MPEG Audio
Format version                   : Version 1
Format profile                   : Layer 3
Codec ID                         : A_MPEG/L3
Codec ID/Hint                    : MP3
Duration                         : 2h 22mn
Bit rate mode                    : Constant
Bit rate                         : 128 Kbps
Channel(s)                       : 2 channels
Sampling rate                    : 44.1 KHz
Resolution                       : 16 bits
Stream size                      : 130 MiB (16%)
Title                            : imkhan
Language                         : Hindi